<svg width="30" height="30" viewBox="0 0 30 30" fill="none" xmlns="http://www.w3.org/2000/svg">
<g clip-path="url(#clip0_283_3478)">
<path d="M25.6627 12.5892C25.6988 8.35952 22.0964 4.48207 17.6324 3.94589C17.5436 3.93536 17.4469 3.91934 17.3445 3.90238C17.1236 3.86576 16.895 3.82812 16.6644 3.82812C15.7495 3.82812 15.5049 4.4708 15.4406 4.85409C15.378 5.22676 15.4377 5.53971 15.6178 5.78465C15.9208 6.19663 16.4539 6.26977 16.8821 6.32837C17.0076 6.3457 17.126 6.36182 17.2251 6.38409C21.2358 7.28027 22.5863 8.68924 23.2463 12.6658C23.2624 12.763 23.2696 12.8827 23.2774 13.0097C23.3062 13.4851 23.3662 14.474 24.4294 14.474H24.4295C24.518 14.474 24.6131 14.4664 24.7122 14.4513C25.7022 14.3008 25.6712 13.3968 25.6563 12.9625C25.6521 12.8401 25.6481 12.7244 25.6585 12.6475C25.6613 12.6281 25.6627 12.6086 25.6627 12.5892Z" fill="#333333"/>
<path d="M16.4047 2.39329C16.5235 2.40186 16.6359 2.41006 16.7296 2.42441C23.3155 3.43724 26.3443 6.55761 27.1836 13.1951C27.1979 13.3079 27.2001 13.4455 27.2025 13.5912C27.2108 14.1098 27.2281 15.1886 28.3866 15.2109L28.4226 15.2113C28.7859 15.2113 29.0749 15.1017 29.2817 14.8854C29.6423 14.5082 29.6172 13.9478 29.5969 13.4974C29.5919 13.3869 29.5872 13.2828 29.5884 13.1917C29.6721 6.40332 23.7961 0.24764 17.0137 0.0187267C16.9856 0.017795 16.9588 0.0192857 16.9317 0.0231056C16.905 0.0264632 16.8782 0.0279265 16.8513 0.0274845C16.7837 0.0274845 16.7005 0.0216149 16.6123 0.0156522C16.5056 0.00838509 16.3847 0 16.2621 0C15.182 0 14.9766 0.767702 14.9503 1.22534C14.8898 2.28298 15.913 2.35742 16.4047 2.39329ZM26.8658 21.7736C26.7243 21.6664 26.5842 21.5575 26.4455 21.4467C25.7264 20.8681 24.9614 20.3347 24.2216 19.8188C24.068 19.712 23.9147 19.6049 23.7615 19.4975C22.8138 18.8318 21.9618 18.5083 21.1568 18.5083C20.0726 18.5083 19.1273 19.1074 18.3471 20.2887C18.0015 20.8124 17.5821 21.067 17.0653 21.067C16.7598 21.067 16.4125 20.9798 16.0334 20.8077C12.9744 19.4205 10.7901 17.2937 9.54103 14.4863C8.93721 13.1294 9.13295 12.2424 10.1956 11.5206C10.7991 11.111 11.9223 10.3485 11.8427 8.88838C11.7526 7.23028 8.09413 2.24124 6.55268 1.6746C5.90004 1.4346 5.21432 1.43236 4.5109 1.66901C2.73886 2.26472 1.46721 3.3109 0.83311 4.69425C0.220346 6.03093 0.248017 7.60043 0.913141 9.2331C2.83594 13.9535 5.53929 18.0691 8.94839 21.4654C12.2853 24.79 16.3866 27.5133 21.1384 29.5593C21.5666 29.7436 22.0159 29.8441 22.3439 29.9175C22.4557 29.9426 22.5523 29.964 22.6226 29.9833C22.6613 29.9939 22.7012 29.9995 22.7411 29.9999L22.7787 30.0001H22.7789C25.0138 30.0001 27.6973 27.9579 28.5214 25.6296C29.2435 23.5909 27.9252 22.5832 26.8658 21.7736ZM17.3932 7.78547C17.0106 7.79516 16.2143 7.81491 15.9348 8.62593C15.8041 9.00494 15.8198 9.33401 15.9814 9.60401C16.2186 10.0002 16.6731 10.1216 17.0865 10.1882C18.5857 10.4287 19.3556 11.2577 19.5096 12.7969C19.5812 13.5145 20.0644 14.0157 20.6849 14.0157C20.7307 14.0157 20.7777 14.013 20.8244 14.0073C21.5707 13.9185 21.9324 13.3702 21.8997 12.3778C21.9116 11.342 21.3696 10.1662 20.4477 9.22957C19.5226 8.29006 18.4075 7.76096 17.3932 7.78547Z" fill="#333333"/>
</g>
<defs>
<clipPath id="clip0_283_3478">
<rect width="30" height="30" fill="white"/>
</clipPath>
</defs>
</svg>
