<svg width="20" height="20" viewBox="0 0 20 20" fill="none" xmlns="http://www.w3.org/2000/svg">
<path d="M11.8512 2.39816C10.6093 1.63215 9.1375 1.21094 7.61719 1.21094C3.47867 1.21094 0 4.29426 0 8.24219C0 9.62637 0.43 10.9533 1.2468 12.0993L0.105781 15.6815C-0.0147656 16.0599 0.268672 16.4453 0.66418 16.4453C0.756437 16.4453 0.847391 16.4235 0.929609 16.3817L4.39961 14.6173C4.54011 14.6778 4.68233 14.7342 4.82609 14.7864C4.0227 13.5324 3.59375 12.093 3.59375 10.5859C3.59375 6.09777 7.37023 2.64734 11.8512 2.39816Z" fill="#58BB47"/>
<path d="M18.7532 14.443C19.57 13.297 20 11.9701 20 10.5859C20 6.63656 16.5198 3.55469 12.3828 3.55469C8.2443 3.55469 4.76562 6.63801 4.76562 10.5859C4.76562 14.5353 8.24578 17.6172 12.3828 17.6172C13.4929 17.6172 14.5989 17.391 15.6002 16.961L19.0704 18.7254C19.1734 18.7778 19.2896 18.7985 19.4043 18.785C19.5191 18.7715 19.6273 18.7244 19.7153 18.6496C19.8034 18.5748 19.8674 18.4756 19.8992 18.3645C19.931 18.2534 19.9293 18.1354 19.8943 18.0253L18.7532 14.443ZM10 11.1719C9.67641 11.1719 9.41406 10.9095 9.41406 10.5859C9.41406 10.2623 9.67641 10 10 10C10.3236 10 10.5859 10.2623 10.5859 10.5859C10.5859 10.9095 10.3236 11.1719 10 11.1719ZM12.3438 11.1719C12.0202 11.1719 11.7578 10.9095 11.7578 10.5859C11.7578 10.2623 12.0202 10 12.3438 10C12.6673 10 12.9297 10.2623 12.9297 10.5859C12.9297 10.9095 12.6673 11.1719 12.3438 11.1719ZM14.6875 11.1719C14.3639 11.1719 14.1016 10.9095 14.1016 10.5859C14.1016 10.2623 14.3639 10 14.6875 10C15.0111 10 15.2734 10.2623 15.2734 10.5859C15.2734 10.9095 15.0111 11.1719 14.6875 11.1719Z" fill="#58BB47"/>
</svg>
