<svg width="561" height="622" viewBox="0 0 561 622" fill="none" xmlns="http://www.w3.org/2000/svg">
<g filter="url(#filter0_d_501_4483)">
<circle cx="250.104" cy="311.104" r="60.1041" fill="white"/>
</g>
<g filter="url(#filter1_d_501_4483)">
<path d="M250 371.104C265.941 371.104 281.228 364.772 292.5 353.5C303.772 342.228 310.104 326.941 310.104 311C310.104 295.059 303.772 279.772 292.5 268.5C281.228 257.228 265.941 250.896 250 250.896L250 254.2C265.064 254.2 279.512 260.184 290.164 270.836C300.816 281.488 306.8 295.936 306.8 311C306.8 326.064 300.816 340.512 290.164 351.164C279.512 361.816 265.064 367.8 250 367.8L250 371.104Z" fill="#58BB47"/>
</g>
<path d="M231.28 309.8H229.42C229.04 309.8 228.72 309.87 228.46 310.01C228.22 310.15 228.06 310.3 227.98 310.46C227.76 310.92 227.49 311.15 227.17 311.15H225.28C224.94 311.15 224.77 310.98 224.77 310.64V301.22C224.77 300.88 224.94 300.71 225.28 300.71H235.45C235.81 300.71 235.99 300.88 235.99 301.22V302.93C235.99 303.27 235.81 303.44 235.45 303.44H227.71V308.9C228.05 307.92 228.89 307.43 230.23 307.43H232C233.44 307.43 234.54 307.81 235.3 308.57C236.06 309.31 236.44 310.41 236.44 311.87V315.35C236.44 316.81 236.03 317.95 235.21 318.77C234.39 319.59 233.25 320 231.79 320H229.24C227.76 320 226.61 319.59 225.79 318.77C224.99 317.95 224.59 316.81 224.59 315.35V314.57C224.59 314.21 224.76 314.03 225.1 314.03H226.99C227.33 314.03 227.5 314.21 227.5 314.57V315.32C227.5 316.78 228.22 317.51 229.66 317.51H231.37C232.85 317.51 233.59 316.78 233.59 315.32V312.29C233.59 311.39 233.41 310.75 233.05 310.37C232.71 309.99 232.12 309.8 231.28 309.8ZM244.782 317.45H246.912C248.352 317.45 249.072 316.71 249.072 315.23V305.48C249.072 304 248.352 303.26 246.912 303.26H244.782C243.342 303.26 242.622 304 242.622 305.48V315.23C242.622 316.71 243.342 317.45 244.782 317.45ZM247.332 320H244.332C242.852 320 241.702 319.59 240.882 318.77C240.062 317.95 239.652 316.81 239.652 315.35V305.36C239.652 303.88 240.062 302.74 240.882 301.94C241.702 301.12 242.852 300.71 244.332 300.71H247.332C248.792 300.71 249.932 301.12 250.752 301.94C251.572 302.74 251.982 303.88 251.982 305.36V315.35C251.982 316.81 251.572 317.95 250.752 318.77C249.932 319.59 248.792 320 247.332 320ZM270.562 312.68H269.962C269.342 312.68 268.922 312.8 268.702 313.04C268.482 313.28 268.372 313.71 268.372 314.33V316.58C268.372 317.2 268.482 317.64 268.702 317.9C268.922 318.14 269.342 318.26 269.962 318.26H270.562C271.162 318.26 271.572 318.14 271.792 317.9C272.032 317.64 272.152 317.2 272.152 316.58V314.33C272.152 313.71 272.032 313.28 271.792 313.04C271.572 312.8 271.162 312.68 270.562 312.68ZM269.542 310.94H270.922C273.102 310.94 274.192 312.04 274.192 314.24V316.7C274.192 318.9 273.102 320 270.922 320H269.542C267.362 320 266.272 318.9 266.272 316.7V314.24C266.272 312.04 267.362 310.94 269.542 310.94ZM259.552 302.39H258.922C258.322 302.39 257.902 302.51 257.662 302.75C257.442 302.99 257.332 303.42 257.332 304.04V306.32C257.332 306.94 257.442 307.37 257.662 307.61C257.902 307.85 258.322 307.97 258.922 307.97H259.552C260.152 307.97 260.562 307.85 260.782 307.61C261.002 307.35 261.112 306.92 261.112 306.32V304.04C261.112 303.44 261.002 303.02 260.782 302.78C260.562 302.52 260.152 302.39 259.552 302.39ZM258.532 300.65H259.912C262.092 300.65 263.182 301.75 263.182 303.95V306.41C263.182 308.61 262.092 309.71 259.912 309.71H258.532C256.352 309.71 255.262 308.61 255.262 306.41V303.95C255.262 301.75 256.352 300.65 258.532 300.65ZM261.412 320H260.242C259.882 320 259.762 319.82 259.882 319.46C260.342 318.26 261.592 315.2 263.632 310.28C265.672 305.36 266.912 302.35 267.352 301.25C267.512 300.89 267.732 300.71 268.012 300.71H269.212C269.592 300.71 269.712 300.9 269.572 301.28L262.102 319.46C261.982 319.82 261.752 320 261.412 320Z" fill="black"/>
<defs>
<filter id="filter0_d_501_4483" x="150" y="211" width="200.208" height="200.208" filterUnits="userSpaceOnUse" color-interpolation-filters="sRGB">
<feFlood flood-opacity="0" result="BackgroundImageFix"/>
<feColorMatrix in="SourceAlpha" type="matrix" values="0 0 0 0 0 0 0 0 0 0 0 0 0 0 0 0 0 0 127 0" result="hardAlpha"/>
<feOffset/>
<feGaussianBlur stdDeviation="20"/>
<feComposite in2="hardAlpha" operator="out"/>
<feColorMatrix type="matrix" values="0 0 0 0 0 0 0 0 0 0 0 0 0 0 0 0 0 0 0.04 0"/>
<feBlend mode="normal" in2="BackgroundImageFix" result="effect1_dropShadow_501_4483"/>
<feBlend mode="normal" in="SourceGraphic" in2="effect1_dropShadow_501_4483" result="shape"/>
</filter>
<filter id="filter1_d_501_4483" x="0" y="0.895935" width="560.104" height="620.208" filterUnits="userSpaceOnUse" color-interpolation-filters="sRGB">
<feFlood flood-opacity="0" result="BackgroundImageFix"/>
<feColorMatrix in="SourceAlpha" type="matrix" values="0 0 0 0 0 0 0 0 0 0 0 0 0 0 0 0 0 0 127 0" result="hardAlpha"/>
<feOffset/>
<feGaussianBlur stdDeviation="125"/>
<feComposite in2="hardAlpha" operator="out"/>
<feColorMatrix type="matrix" values="0 0 0 0 0 0 0 0 0 0 0 0 0 0 0 0 0 0 0.11 0"/>
<feBlend mode="normal" in2="BackgroundImageFix" result="effect1_dropShadow_501_4483"/>
<feBlend mode="normal" in="SourceGraphic" in2="effect1_dropShadow_501_4483" result="shape"/>
</filter>
</defs>
</svg>
