<svg width="604" height="622" viewBox="0 0 604 622" fill="none" xmlns="http://www.w3.org/2000/svg">
<g filter="url(#filter0_d_283_3226)">
<circle cx="293.001" cy="311" r="60.1041" fill="white"/>
</g>
<g filter="url(#filter1_d_283_3226)">
<path d="M250.5 353.5C257.489 360.489 266.094 365.647 275.553 368.516C285.011 371.385 295.031 371.877 304.726 369.949C314.42 368.021 323.489 363.732 331.13 357.461C338.77 351.191 344.746 343.133 348.529 334.001C352.311 324.869 353.783 314.945 352.815 305.109C351.846 295.272 348.466 285.826 342.975 277.608C337.483 269.39 330.05 262.652 321.333 257.993C312.616 253.334 302.884 250.896 293 250.896L293 254.2C302.341 254.2 311.537 256.504 319.775 260.907C328.013 265.31 335.038 271.677 340.227 279.444C345.417 287.21 348.611 296.137 349.526 305.433C350.442 314.728 349.051 324.107 345.476 332.736C341.902 341.366 336.254 348.981 329.034 354.907C321.813 360.833 313.242 364.886 304.081 366.709C294.92 368.531 285.45 368.066 276.512 365.354C267.573 362.643 259.441 357.769 252.836 351.164L250.5 353.5Z" fill="#58BB47"/>
</g>
<path d="M273.72 317.45H275.76C277.2 317.45 277.92 316.71 277.92 315.23V312.83C277.92 311.35 277.2 310.61 275.76 310.61H271.56V315.23C271.56 316.71 272.28 317.45 273.72 317.45ZM276.18 320H273.3C271.82 320 270.67 319.59 269.85 318.77C269.03 317.95 268.62 316.81 268.62 315.35V305.36C268.62 303.88 269.03 302.74 269.85 301.94C270.67 301.12 271.82 300.71 273.3 300.71H279.27C279.61 300.71 279.78 300.88 279.78 301.22V302.78C279.78 303.1 279.61 303.26 279.27 303.26H273.72C272.28 303.26 271.56 304 271.56 305.48V308.06H276.18C277.66 308.06 278.81 308.47 279.63 309.29C280.45 310.09 280.86 311.23 280.86 312.71V315.35C280.86 316.81 280.45 317.95 279.63 318.77C278.81 319.59 277.66 320 276.18 320ZM290.719 309.8H288.859C288.479 309.8 288.159 309.87 287.899 310.01C287.659 310.15 287.499 310.3 287.419 310.46C287.199 310.92 286.929 311.15 286.609 311.15H284.719C284.379 311.15 284.209 310.98 284.209 310.64V301.22C284.209 300.88 284.379 300.71 284.719 300.71H294.889C295.249 300.71 295.429 300.88 295.429 301.22V302.93C295.429 303.27 295.249 303.44 294.889 303.44H287.149V308.9C287.489 307.92 288.329 307.43 289.669 307.43H291.439C292.879 307.43 293.979 307.81 294.739 308.57C295.499 309.31 295.879 310.41 295.879 311.87V315.35C295.879 316.81 295.469 317.95 294.649 318.77C293.829 319.59 292.689 320 291.229 320H288.679C287.199 320 286.049 319.59 285.229 318.77C284.429 317.95 284.029 316.81 284.029 315.35V314.57C284.029 314.21 284.199 314.03 284.539 314.03H286.429C286.769 314.03 286.939 314.21 286.939 314.57V315.32C286.939 316.78 287.659 317.51 289.099 317.51H290.809C292.289 317.51 293.029 316.78 293.029 315.32V312.29C293.029 311.39 292.849 310.75 292.489 310.37C292.149 309.99 291.559 309.8 290.719 309.8ZM314.152 312.68H313.552C312.932 312.68 312.512 312.8 312.292 313.04C312.072 313.28 311.962 313.71 311.962 314.33V316.58C311.962 317.2 312.072 317.64 312.292 317.9C312.512 318.14 312.932 318.26 313.552 318.26H314.152C314.752 318.26 315.162 318.14 315.382 317.9C315.622 317.64 315.742 317.2 315.742 316.58V314.33C315.742 313.71 315.622 313.28 315.382 313.04C315.162 312.8 314.752 312.68 314.152 312.68ZM313.132 310.94H314.512C316.692 310.94 317.782 312.04 317.782 314.24V316.7C317.782 318.9 316.692 320 314.512 320H313.132C310.952 320 309.862 318.9 309.862 316.7V314.24C309.862 312.04 310.952 310.94 313.132 310.94ZM303.142 302.39H302.512C301.912 302.39 301.492 302.51 301.252 302.75C301.032 302.99 300.922 303.42 300.922 304.04V306.32C300.922 306.94 301.032 307.37 301.252 307.61C301.492 307.85 301.912 307.97 302.512 307.97H303.142C303.742 307.97 304.152 307.85 304.372 307.61C304.592 307.35 304.702 306.92 304.702 306.32V304.04C304.702 303.44 304.592 303.02 304.372 302.78C304.152 302.52 303.742 302.39 303.142 302.39ZM302.122 300.65H303.502C305.682 300.65 306.772 301.75 306.772 303.95V306.41C306.772 308.61 305.682 309.71 303.502 309.71H302.122C299.942 309.71 298.852 308.61 298.852 306.41V303.95C298.852 301.75 299.942 300.65 302.122 300.65ZM305.002 320H303.832C303.472 320 303.352 319.82 303.472 319.46C303.932 318.26 305.182 315.2 307.222 310.28C309.262 305.36 310.502 302.35 310.942 301.25C311.102 300.89 311.322 300.71 311.602 300.71H312.802C313.182 300.71 313.302 300.9 313.162 301.28L305.692 319.46C305.572 319.82 305.342 320 305.002 320Z" fill="black"/>
<defs>
<filter id="filter0_d_283_3226" x="192.896" y="210.896" width="200.208" height="200.208" filterUnits="userSpaceOnUse" color-interpolation-filters="sRGB">
<feFlood flood-opacity="0" result="BackgroundImageFix"/>
<feColorMatrix in="SourceAlpha" type="matrix" values="0 0 0 0 0 0 0 0 0 0 0 0 0 0 0 0 0 0 127 0" result="hardAlpha"/>
<feOffset/>
<feGaussianBlur stdDeviation="20"/>
<feComposite in2="hardAlpha" operator="out"/>
<feColorMatrix type="matrix" values="0 0 0 0 0 0 0 0 0 0 0 0 0 0 0 0 0 0 0.04 0"/>
<feBlend mode="normal" in2="BackgroundImageFix" result="effect1_dropShadow_283_3226"/>
<feBlend mode="normal" in="SourceGraphic" in2="effect1_dropShadow_283_3226" result="shape"/>
</filter>
<filter id="filter1_d_283_3226" x="0.5" y="0.895508" width="602.604" height="620.209" filterUnits="userSpaceOnUse" color-interpolation-filters="sRGB">
<feFlood flood-opacity="0" result="BackgroundImageFix"/>
<feColorMatrix in="SourceAlpha" type="matrix" values="0 0 0 0 0 0 0 0 0 0 0 0 0 0 0 0 0 0 127 0" result="hardAlpha"/>
<feOffset/>
<feGaussianBlur stdDeviation="125"/>
<feComposite in2="hardAlpha" operator="out"/>
<feColorMatrix type="matrix" values="0 0 0 0 0 0 0 0 0 0 0 0 0 0 0 0 0 0 0.11 0"/>
<feBlend mode="normal" in2="BackgroundImageFix" result="effect1_dropShadow_283_3226"/>
<feBlend mode="normal" in="SourceGraphic" in2="effect1_dropShadow_283_3226" result="shape"/>
</filter>
</defs>
</svg>
