<svg width="622" height="622" viewBox="0 0 622 622" fill="none" xmlns="http://www.w3.org/2000/svg">
<g filter="url(#filter0_d_283_3232)">
<circle cx="311.001" cy="311" r="60.1041" fill="white"/>
</g>
<g filter="url(#filter1_d_283_3232)">
<path d="M253.373 293.921C249.764 306.099 250.106 319.108 254.349 331.079C258.592 343.051 266.519 353.371 276.992 360.558C287.465 367.744 299.945 371.429 312.642 371.082C325.339 370.735 337.599 366.374 347.664 358.626C357.728 350.878 365.08 340.141 368.663 327.956C372.246 315.77 371.877 302.762 367.608 290.8C363.339 278.837 355.39 268.534 344.902 261.37C334.414 254.206 321.926 250.548 309.23 250.922L309.327 254.225C321.325 253.871 333.127 257.328 343.038 264.098C352.95 270.869 360.462 280.605 364.496 291.91C368.53 303.215 368.879 315.508 365.493 327.023C362.107 338.539 355.16 348.686 345.648 356.008C336.137 363.33 324.55 367.451 312.552 367.779C300.553 368.107 288.759 364.625 278.862 357.833C268.964 351.042 261.473 341.289 257.463 329.975C253.453 318.662 253.131 306.369 256.541 294.86L253.373 293.921Z" fill="#58BB47"/>
</g>
<path d="M291.81 317.45H294.18C294.92 317.45 295.46 317.28 295.8 316.94C296.16 316.6 296.34 316.06 296.34 315.32V313.7C296.34 312.2 295.62 311.45 294.18 311.45H291.81C290.37 311.45 289.65 312.2 289.65 313.7V315.32C289.65 316.06 289.82 316.6 290.16 316.94C290.52 317.28 291.07 317.45 291.81 317.45ZM291.81 309.11H294.18C295.62 309.11 296.34 308.36 296.34 306.86V305.39C296.34 304.65 296.16 304.11 295.8 303.77C295.46 303.43 294.92 303.26 294.18 303.26H291.81C291.07 303.26 290.52 303.43 290.16 303.77C289.82 304.11 289.65 304.65 289.65 305.39V306.86C289.65 308.36 290.37 309.11 291.81 309.11ZM294.6 320H291.42C289.94 320 288.79 319.62 287.97 318.86C287.15 318.1 286.74 316.99 286.74 315.53V313.91C286.74 312.07 287.43 310.87 288.81 310.31C287.43 309.75 286.74 308.54 286.74 306.68V305.15C286.74 303.71 287.15 302.61 287.97 301.85C288.79 301.09 289.94 300.71 291.42 300.71H294.6C296.08 300.71 297.22 301.09 298.02 301.85C298.84 302.61 299.25 303.71 299.25 305.15V306.68C299.25 307.6 299.06 308.38 298.68 309.02C298.32 309.66 297.83 310.09 297.21 310.31C298.57 310.85 299.25 312.06 299.25 313.94V315.53C299.25 316.99 298.84 318.1 298.02 318.86C297.22 319.62 296.08 320 294.6 320ZM309.276 309.8H307.416C307.036 309.8 306.716 309.87 306.456 310.01C306.216 310.15 306.056 310.3 305.976 310.46C305.756 310.92 305.486 311.15 305.166 311.15H303.276C302.936 311.15 302.766 310.98 302.766 310.64V301.22C302.766 300.88 302.936 300.71 303.276 300.71H313.446C313.806 300.71 313.986 300.88 313.986 301.22V302.93C313.986 303.27 313.806 303.44 313.446 303.44H305.706V308.9C306.046 307.92 306.886 307.43 308.226 307.43H309.996C311.436 307.43 312.536 307.81 313.296 308.57C314.056 309.31 314.436 310.41 314.436 311.87V315.35C314.436 316.81 314.026 317.95 313.206 318.77C312.386 319.59 311.246 320 309.786 320H307.236C305.756 320 304.606 319.59 303.786 318.77C302.986 317.95 302.586 316.81 302.586 315.35V314.57C302.586 314.21 302.756 314.03 303.096 314.03H304.986C305.326 314.03 305.496 314.21 305.496 314.57V315.32C305.496 316.78 306.216 317.51 307.656 317.51H309.366C310.846 317.51 311.586 316.78 311.586 315.32V312.29C311.586 311.39 311.406 310.75 311.046 310.37C310.706 309.99 310.116 309.8 309.276 309.8ZM332.708 312.68H332.108C331.488 312.68 331.068 312.8 330.848 313.04C330.628 313.28 330.518 313.71 330.518 314.33V316.58C330.518 317.2 330.628 317.64 330.848 317.9C331.068 318.14 331.488 318.26 332.108 318.26H332.708C333.308 318.26 333.718 318.14 333.938 317.9C334.178 317.64 334.298 317.2 334.298 316.58V314.33C334.298 313.71 334.178 313.28 333.938 313.04C333.718 312.8 333.308 312.68 332.708 312.68ZM331.688 310.94H333.068C335.248 310.94 336.338 312.04 336.338 314.24V316.7C336.338 318.9 335.248 320 333.068 320H331.688C329.508 320 328.418 318.9 328.418 316.7V314.24C328.418 312.04 329.508 310.94 331.688 310.94ZM321.698 302.39H321.068C320.468 302.39 320.048 302.51 319.808 302.75C319.588 302.99 319.478 303.42 319.478 304.04V306.32C319.478 306.94 319.588 307.37 319.808 307.61C320.048 307.85 320.468 307.97 321.068 307.97H321.698C322.298 307.97 322.708 307.85 322.928 307.61C323.148 307.35 323.258 306.92 323.258 306.32V304.04C323.258 303.44 323.148 303.02 322.928 302.78C322.708 302.52 322.298 302.39 321.698 302.39ZM320.678 300.65H322.058C324.238 300.65 325.328 301.75 325.328 303.95V306.41C325.328 308.61 324.238 309.71 322.058 309.71H320.678C318.498 309.71 317.408 308.61 317.408 306.41V303.95C317.408 301.75 318.498 300.65 320.678 300.65ZM323.558 320H322.388C322.028 320 321.908 319.82 322.028 319.46C322.488 318.26 323.738 315.2 325.778 310.28C327.818 305.36 329.058 302.35 329.498 301.25C329.658 300.89 329.878 300.71 330.158 300.71H331.358C331.738 300.71 331.858 300.9 331.718 301.28L324.248 319.46C324.128 319.82 323.898 320 323.558 320Z" fill="black"/>
<defs>
<filter id="filter0_d_283_3232" x="210.896" y="210.896" width="200.208" height="200.208" filterUnits="userSpaceOnUse" color-interpolation-filters="sRGB">
<feFlood flood-opacity="0" result="BackgroundImageFix"/>
<feColorMatrix in="SourceAlpha" type="matrix" values="0 0 0 0 0 0 0 0 0 0 0 0 0 0 0 0 0 0 127 0" result="hardAlpha"/>
<feOffset/>
<feGaussianBlur stdDeviation="20"/>
<feComposite in2="hardAlpha" operator="out"/>
<feColorMatrix type="matrix" values="0 0 0 0 0 0 0 0 0 0 0 0 0 0 0 0 0 0 0.04 0"/>
<feBlend mode="normal" in2="BackgroundImageFix" result="effect1_dropShadow_283_3232"/>
<feBlend mode="normal" in="SourceGraphic" in2="effect1_dropShadow_283_3232" result="shape"/>
</filter>
<filter id="filter1_d_283_3232" x="0.895996" y="0.895508" width="620.208" height="620.209" filterUnits="userSpaceOnUse" color-interpolation-filters="sRGB">
<feFlood flood-opacity="0" result="BackgroundImageFix"/>
<feColorMatrix in="SourceAlpha" type="matrix" values="0 0 0 0 0 0 0 0 0 0 0 0 0 0 0 0 0 0 127 0" result="hardAlpha"/>
<feOffset/>
<feGaussianBlur stdDeviation="125"/>
<feComposite in2="hardAlpha" operator="out"/>
<feColorMatrix type="matrix" values="0 0 0 0 0 0 0 0 0 0 0 0 0 0 0 0 0 0 0.11 0"/>
<feBlend mode="normal" in2="BackgroundImageFix" result="effect1_dropShadow_283_3232"/>
<feBlend mode="normal" in="SourceGraphic" in2="effect1_dropShadow_283_3232" result="shape"/>
</filter>
</defs>
</svg>
