<svg width="38" height="38" viewBox="0 0 38 38" fill="none" xmlns="http://www.w3.org/2000/svg">
<g clip-path="url(#clip0_283_3299)">
<path d="M19.0001 24.7364C17.85 24.7371 16.7046 24.5903 15.5918 24.2996V28.5769H11.622L18.9993 38L26.3766 28.5769H22.4068V24.3001C21.2946 24.5904 20.1497 24.7371 19.0001 24.7364ZM19.0001 22.5101C25.2062 22.5101 30.2552 17.4611 30.2552 11.2551C30.2552 5.04902 25.2062 0 19.0001 0C12.7941 0 7.74512 5.04902 7.74512 11.2551C7.74512 17.4611 12.7941 22.5101 19.0001 22.5101ZM17.8845 5.98617V4.53332H20.1109V5.97674H22.0576V8.20311H18.1165C17.6047 8.20311 17.1885 8.61944 17.1885 9.1312C17.1885 9.64297 17.6048 10.0593 18.1165 10.0593H20.4508C22.2358 10.0593 23.6879 11.5114 23.6879 13.2963C23.6879 15.0812 22.2358 16.5333 20.4508 16.5333H20.1109V17.9768H17.8845V16.5333H15.4206V14.307H20.4507C21.0081 14.307 21.4614 13.8536 21.4614 13.2963C21.4614 12.739 21.0081 12.2857 20.4507 12.2857H18.1164C16.377 12.2857 14.962 10.8706 14.962 9.1312C14.962 7.46997 16.2532 6.1055 17.8845 5.98617Z" fill="#58BB47"/>
</g>
<defs>
<clipPath id="clip0_283_3299">
<rect width="38" height="38" fill="white"/>
</clipPath>
</defs>
</svg>
