<svg width="34" height="34" viewBox="0 0 34 34" fill="none" xmlns="http://www.w3.org/2000/svg">
<path d="M17 2.125C8.75287 2.125 2.125 8.85594 2.125 17C2.125 25.0644 8.71037 31.875 17 31.875C25.2981 31.875 31.875 25.0527 31.875 17C31.875 8.80813 25.2014 2.125 17 2.125ZM17 5.84375C21.8333 5.84375 25.9473 8.93881 27.4932 13.2473C20.5158 11.2051 13.4852 11.2051 6.50781 13.2473C8.05269 8.93881 12.1667 5.84375 17 5.84375ZM6.44513 20.5849L10.4061 20.9451C11.1152 21.0085 11.7825 21.308 12.3012 21.7955C12.82 22.283 13.1602 22.9305 13.2674 23.6342L13.8943 27.7079C12.1728 27.2042 10.5976 26.2943 9.30121 25.0547C8.00484 23.8151 7.02532 22.2821 6.44513 20.5849ZM17 20.1875C16.1546 20.1875 15.3439 19.8517 14.7461 19.2539C14.1483 18.6561 13.8125 17.8454 13.8125 17C13.8125 16.1546 14.1483 15.3439 14.7461 14.7461C15.3439 14.1483 16.1546 13.8125 17 13.8125C17.8454 13.8125 18.6561 14.1483 19.2539 14.7461C19.8517 15.3439 20.1875 16.1546 20.1875 17C20.1875 17.8454 19.8517 18.6561 19.2539 19.2539C18.6561 19.8517 17.8454 20.1875 17 20.1875ZM20.1057 27.7079L20.7326 23.6342C20.8398 22.9305 21.18 22.283 21.6988 21.7955C22.2175 21.308 22.8848 21.0085 23.5939 20.9451L27.5549 20.5849C26.9747 22.2821 25.9952 23.8151 24.6988 25.0547C23.4024 26.2943 21.8272 27.2042 20.1057 27.7079Z" fill="#58BB47"/>
</svg>
