<svg width="30" height="30" viewBox="0 0 30 30" fill="none" xmlns="http://www.w3.org/2000/svg">
<g clip-path="url(#clip0_283_3317)">
<path d="M23.5547 24.9609C22.5731 24.9609 21.731 25.5677 21.3826 26.4258H19.3359V28.1836H21.3826C21.731 29.0416 22.5731 29.6484 23.5547 29.6484C24.847 29.6484 25.8984 28.597 25.8984 27.3047C25.8984 26.0123 24.847 24.9609 23.5547 24.9609ZM27.6562 19.9805C27.2841 19.9802 26.9173 20.0691 26.5866 20.2399L24.4103 18.4263C24.2524 18.2947 24.0533 18.2227 23.8477 18.2227H19.3359V19.9805H23.5294L25.4375 21.5706C25.3547 21.8132 25.3125 22.0678 25.3125 22.3242C25.3125 23.6166 26.3639 24.668 27.6562 24.668C28.9486 24.668 30 23.6166 30 22.3242C30 21.0319 28.9486 19.9805 27.6562 19.9805ZM27.6562 12.6562C26.6746 12.6562 25.8326 13.263 25.4841 14.1211H19.3359V15.8789H25.4841C25.8326 16.737 26.6746 17.3438 27.6562 17.3438C28.9486 17.3438 30 16.2923 30 15C30 13.7077 28.9486 12.6562 27.6562 12.6562ZM24.4103 11.5736L26.5866 9.76008C26.9173 9.93084 27.2841 10.0198 27.6562 10.0195C28.9486 10.0195 30 8.96813 30 7.67578C30 6.38344 28.9486 5.33203 27.6562 5.33203C26.3639 5.33203 25.3125 6.38344 25.3125 7.67578C25.3125 7.93945 25.3569 8.19275 25.4375 8.42941L23.5294 10.0195H19.3359V11.7773H23.8477C24.0533 11.7773 24.2524 11.7053 24.4103 11.5736ZM23.5547 5.03906C24.847 5.03906 25.8984 3.98766 25.8984 2.69531C25.8984 1.40297 24.847 0.351562 23.5547 0.351562C22.5731 0.351562 21.731 0.958359 21.3826 1.81641H19.3359V3.57422H21.3826C21.731 4.43227 22.5731 5.03906 23.5547 5.03906ZM8.78906 15C8.78906 18.3924 11.549 21.1523 14.9414 21.1523C15.8845 21.1523 16.7785 20.9388 17.5781 20.5579V9.44209C16.7785 9.06123 15.8845 8.84766 14.9414 8.84766C11.549 8.84766 8.78906 11.6076 8.78906 15Z" fill="#58BB47"/>
<path d="M16.6992 0.0585938H13.1836C12.6982 0.0585938 12.3047 0.452109 12.3047 0.9375V2.08154C10.6517 2.41909 9.07878 3.0707 7.67133 4.00102L6.86215 3.19189C6.51891 2.84865 5.96244 2.84865 5.6192 3.19189L3.1333 5.67779C2.79006 6.02098 2.79006 6.5775 3.1333 6.92074L3.94242 7.72992C3.0121 9.13737 2.3605 10.7103 2.02295 12.3633H0.878906C0.393516 12.3633 0 12.7568 0 13.2422V16.7578C0 17.2432 0.393516 17.6367 0.878906 17.6367H2.02295C2.36051 19.2898 3.01211 20.8627 3.94242 22.2701L3.13324 23.0793C2.96844 23.2441 2.87586 23.4677 2.87586 23.7007C2.87586 23.9338 2.96844 24.1573 3.13324 24.3221L5.6192 26.8081C5.96244 27.1513 6.51891 27.1513 6.86215 26.8081L7.67133 25.999C9.07879 26.9293 10.6517 27.5809 12.3047 27.9185V29.0625C12.3047 29.5479 12.6982 29.9414 13.1836 29.9414H16.6992C17.1846 29.9414 17.5781 29.5479 17.5781 29.0625V22.4577C16.753 22.7503 15.8656 22.9102 14.9414 22.9102C10.5797 22.9102 7.03125 19.3617 7.03125 15C7.03125 10.6383 10.5797 7.08984 14.9414 7.08984C15.8656 7.08984 16.753 7.24969 17.5781 7.5423V0.9375C17.5781 0.452109 17.1846 0.0585938 16.6992 0.0585938Z" fill="#58BB47"/>
</g>
<defs>
<clipPath id="clip0_283_3317">
<rect width="30" height="30" fill="white"/>
</clipPath>
</defs>
</svg>
