<svg width="30" height="30" viewBox="0 0 30 30" fill="none" xmlns="http://www.w3.org/2000/svg">
<g clip-path="url(#clip0_283_3326)">
<path d="M24.1595 10.3207C24.5159 10.4973 24.9093 10.1635 24.7886 9.78443C23.9996 7.30721 21.5254 1.36316 15.8821 1.06246C9.45255 0.719923 7.51696 4.75961 8.14327 6.94797L8.89538 8.43584C9.23821 9.53014 10.3394 11.4663 13.8341 11.361C18.3369 11.2254 20.3667 8.4407 24.1595 10.3207Z" fill="#58BB47"/>
<path d="M16.525 3.63795C19.8862 3.6393 22.3111 5.53568 23.9794 7.6818C22.7209 4.91131 20.2517 1.29525 15.8821 1.06246C9.45255 0.719923 7.51696 4.75961 8.14327 6.94797L8.59245 7.83654C9.3493 5.75477 11.7282 3.63602 16.525 3.63795Z" fill="#4DC321"/>
<path d="M27.0324 15.5261L25.3678 15.4336C24.2486 15.1833 22.0213 15.1689 20.3652 18.248C18.2312 22.2154 19.6279 25.3656 16.1035 27.7102C15.7722 27.9305 15.8647 28.4381 16.2534 28.5231C18.7932 29.0785 25.178 29.9077 28.26 25.1708C31.7714 19.774 29.2407 16.0779 27.0324 15.5261Z" fill="#58BB47"/>
<path d="M18.7593 28.6733C22.2837 26.178 20.8871 22.8253 23.021 18.6029C24.194 16.282 25.6534 15.6128 26.8027 15.5143L25.3678 15.4345C24.2486 15.1843 22.0213 15.1699 20.3652 18.249C18.2312 22.2163 19.6279 25.3666 16.1035 27.7112C15.7722 27.9315 15.8647 28.4391 16.2533 28.5241C17.0249 28.6924 17.8061 28.8132 18.5925 28.8855C18.6262 28.8 18.6842 28.7262 18.7593 28.6733Z" fill="#4DC321"/>
<path d="M4.72462 11.9221C4.69942 11.5251 4.21356 11.3513 3.94567 11.6454C2.19483 13.5673 -1.71577 18.6821 0.845479 23.7196C3.76362 29.459 8.22987 29.1154 9.8119 27.4789L10.7244 26.0836C11.5006 25.2395 12.6267 23.3178 10.7883 20.344C8.41937 16.5122 4.99292 16.1466 4.72462 11.9221Z" fill="#58BB47"/>
<path d="M3.32025 23.7196C1.34259 19.8299 3.22351 15.8945 4.98935 13.4182C4.85212 12.976 4.76025 12.4834 4.72462 11.9221C4.69942 11.5251 4.21357 11.3513 3.94567 11.6454C2.19483 13.5673 -1.71577 18.6821 0.845479 23.7196C3.07696 28.1085 6.2136 28.9402 8.2737 28.3569C6.60278 27.9213 4.77038 26.5718 3.32025 23.7196Z" fill="#4DC321"/>
<path d="M6.09076 9.37459C5.97609 9.46634 5.9168 9.60076 5.91504 9.73716L6.22125 10.1199C6.3965 10.339 6.72369 10.3548 6.91945 10.1539C8.10838 8.93384 12.082 5.31574 16.5169 6.34341C16.6128 6.36562 16.6924 6.33193 16.7435 6.27381C14.9228 5.44658 11.447 5.08963 6.09076 9.37459Z" fill="#C3EBB0"/>
<path d="M6.16979 9.38166C11.4483 5.15887 14.8718 5.51553 16.6626 6.3318C16.8205 6.26488 16.8715 6.0233 16.6904 5.91414C15.095 4.9525 11.5229 4.00662 5.6718 8.6875C5.47106 8.84805 5.4393 9.14172 5.59985 9.34246L6.00883 9.85369C5.96829 9.68371 6.02454 9.49791 6.16979 9.38166Z" fill="#97DC7C"/>
<path d="M26.7613 12.5162C26.7226 12.2621 26.4841 12.0877 26.2301 12.1265L25.7197 12.2042C25.6103 12.3189 25.5603 12.4865 25.6071 12.6528C26.0693 14.2924 27.2158 19.5427 24.1083 22.8696C24.0275 22.9562 24.0283 23.0628 24.0745 23.1436L24.0927 23.1727C25.7044 22.0586 27.7926 19.2876 26.7613 12.5162Z" fill="#C3EBB0"/>
<path d="M24.1689 22.8694C27.2764 19.5425 26.1299 14.2922 25.6678 12.6526C25.6195 12.4813 25.6733 12.3081 25.7898 12.1934L25.2465 12.2761C24.9691 12.3183 24.7918 12.5937 24.868 12.8638C25.3301 14.5034 26.4767 19.7538 23.3692 23.0807C23.1865 23.2762 23.4199 23.5744 23.6541 23.4451C23.8198 23.3534 23.9805 23.2526 24.1352 23.1433C24.0889 23.0626 24.0881 22.956 24.1689 22.8694Z" fill="#97DC7C"/>
<path d="M13.2 26.9366C11.5489 26.517 6.42879 24.8847 5.10129 20.5301C5.06074 20.397 4.93992 20.3481 4.83252 20.3688C4.89803 20.3814 4.95873 20.4207 4.99359 20.4907C5.22305 22.4772 6.69996 25.5893 12.9572 28.0339C13.0874 28.0848 13.2263 28.0728 13.3418 28.0136L13.5197 27.5582C13.6218 27.2969 13.4719 27.0057 13.2 26.9366Z" fill="#C3EBB0"/>
<path d="M12.962 27.95C6.77278 25.5319 5.31197 22.4537 5.08498 20.4888C4.98139 20.2807 4.64822 20.3419 4.64348 20.5941C4.60832 22.4565 5.57524 26.0231 12.5545 28.7499C12.7939 28.8434 13.0642 28.7241 13.1577 28.4847L13.3835 27.9066C13.2622 27.9849 13.1066 28.0065 12.962 27.95Z" fill="#97DC7C"/>
</g>
<defs>
<clipPath id="clip0_283_3326">
<rect width="30" height="30" fill="white"/>
</clipPath>
</defs>
</svg>
