<svg width="40" height="40" viewBox="0 0 40 40" fill="none" xmlns="http://www.w3.org/2000/svg">
<path d="M36.6486 21.6571L7.38878 21.6697L12.8565 27.15C13.0154 27.305 13.1419 27.4901 13.2284 27.6945C13.3149 27.899 13.3598 28.1186 13.3604 28.3406C13.3558 28.6692 13.2543 28.9891 13.0686 29.2603C12.8829 29.5314 12.6213 29.7417 12.3166 29.8648C12.0119 29.9879 11.6776 30.0183 11.3557 29.9522C11.0337 29.8862 10.7385 29.7265 10.5069 29.4933L2.16674 21.1658C2.01151 21.0107 1.88836 20.8266 1.80434 20.624C1.72032 20.4213 1.67707 20.2041 1.67707 19.9847C1.67707 19.7653 1.72032 19.548 1.80434 19.3454C1.88836 19.1427 2.01151 18.9586 2.16674 18.8036L10.5069 10.476C12.0817 8.84452 14.4943 11.276 12.8565 12.8382L7.35729 18.3374L36.6486 18.3248C36.876 18.3108 37.1039 18.3436 37.3182 18.421C37.5325 18.4984 37.7287 18.6188 37.8947 18.7749C38.0607 18.931 38.1929 19.1194 38.2833 19.3286C38.3738 19.5377 38.4204 19.7631 38.4204 19.991C38.4204 20.2188 38.3738 20.4443 38.2833 20.6534C38.1929 20.8625 38.0607 21.051 37.8947 21.207C37.7287 21.3631 37.5325 21.4836 37.3182 21.561C37.1039 21.6384 36.876 21.6711 36.6486 21.6571Z" fill="#333333"/>
</svg>
