<svg width="20" height="20" viewBox="0 0 20 20" fill="none" xmlns="http://www.w3.org/2000/svg">
<path d="M9.99967 10.6253C12.646 10.6253 14.7913 8.48002 14.7913 5.83366C14.7913 3.18729 12.646 1.04199 9.99967 1.04199C7.35331 1.04199 5.20801 3.18729 5.20801 5.83366C5.20801 8.48002 7.35331 10.6253 9.99967 10.6253Z" fill="#58BB47"/>
<path fill-rule="evenodd" clip-rule="evenodd" d="M17.7082 17.5003C17.7082 17.8871 17.5545 18.258 17.281 18.5315C17.0075 18.805 16.6366 18.9587 16.2498 18.9587H3.74984C3.36306 18.9587 2.99213 18.805 2.71864 18.5315C2.44515 18.258 2.2915 17.8871 2.2915 17.5003C2.2915 15.7875 2.97193 14.1448 4.18311 12.9336C5.39428 11.7224 7.03698 11.042 8.74984 11.042H11.2498C12.9627 11.042 14.6054 11.7224 15.8166 12.9336C17.0277 14.1448 17.7082 15.7875 17.7082 17.5003ZM17.1007 18.1078C17.0898 18.112 17.0832 18.117 17.0832 18.1253L17.1007 18.1078Z" fill="#58BB47"/>
</svg>
