<svg width="122" height="121" viewBox="0 0 122 121" fill="none" xmlns="http://www.w3.org/2000/svg">
<path d="M35.985 71H33.01C32.52 71 32.275 70.755 32.275 70.265V49.23C32.275 48.74 32.52 48.495 33.01 48.495H41.55C43.37 48.495 44.7817 48.9967 45.785 50C46.7883 50.98 47.29 52.38 47.29 54.2V57.56C47.29 59.38 46.7883 60.7917 45.785 61.795C44.7817 62.775 43.37 63.265 41.55 63.265H37.14C36.86 63.265 36.72 63.3933 36.72 63.65V70.265C36.72 70.755 36.475 71 35.985 71ZM37.105 59.38H40.815C41.5617 59.38 42.0867 59.2283 42.39 58.925C42.6933 58.5983 42.845 58.0733 42.845 57.35V54.41C42.845 53.6633 42.6933 53.1383 42.39 52.835C42.0867 52.5083 41.5617 52.345 40.815 52.345H37.105C36.8483 52.345 36.72 52.4733 36.72 52.73V58.995C36.72 59.2517 36.8483 59.38 37.105 59.38ZM54.3696 71H51.3946C50.9046 71 50.6596 70.755 50.6596 70.265V47.13C50.6596 46.64 50.9046 46.395 51.3946 46.395H54.3696C54.8596 46.395 55.1046 46.64 55.1046 47.13V70.265C55.1046 70.755 54.8596 71 54.3696 71ZM65.397 71H64.557C62.7137 71 61.2904 70.51 60.287 69.53C59.2837 68.55 58.782 67.1383 58.782 65.295V58.855C58.782 57.0117 59.2837 55.6 60.287 54.62C61.2904 53.64 62.7137 53.15 64.557 53.15H72.642C73.1554 53.15 73.412 53.395 73.412 53.885V70.265C73.412 70.755 73.1554 71 72.642 71H69.702C69.212 71 68.967 70.755 68.967 70.265V69.11H68.827C68.5704 69.74 68.1154 70.2183 67.462 70.545C66.8087 70.8483 66.1204 71 65.397 71ZM68.967 64.49V57.385C68.967 57.1283 68.827 57 68.547 57H65.257C64.5104 57 63.9854 57.1633 63.682 57.49C63.3787 57.7933 63.227 58.3183 63.227 59.065V65.085C63.227 65.8317 63.3787 66.3683 63.682 66.695C63.9854 66.9983 64.5104 67.15 65.257 67.15H66.552C68.162 67.15 68.967 66.2633 68.967 64.49ZM80.1523 76.915H77.9123C77.4456 76.915 77.2123 76.6583 77.2123 76.145V73.8C77.2123 73.2867 77.4456 73.03 77.9123 73.03H78.6473C80.1173 73.03 81.1089 72.82 81.6223 72.4C82.1589 72.0033 82.5673 71.2217 82.8473 70.055H80.9923C80.5489 70.055 80.2573 69.81 80.1173 69.32L76.0223 53.885C75.8823 53.395 76.0573 53.15 76.5473 53.15H79.6623C80.1289 53.15 80.4206 53.395 80.5373 53.885L83.5473 66.8H83.6873L86.6623 53.885C86.7556 53.395 87.0473 53.15 87.5373 53.15H90.4773C91.0606 53.15 91.2939 53.4067 91.1773 53.92L86.9073 71C86.3939 72.9367 85.6006 74.4067 84.5273 75.41C83.4539 76.4133 81.9956 76.915 80.1523 76.915Z" fill="white"/>
<rect x="0.5" y="0.5" width="121" height="120" rx="60" stroke="white"/>
</svg>
