<svg width="28" height="28" viewBox="0 0 28 28" fill="none" xmlns="http://www.w3.org/2000/svg">
<path d="M14 0C6.28009 0 0 6.28009 0 14C0 21.7199 6.28009 28 14 28C21.7199 28 28 21.7199 28 14C28 6.28009 21.7199 0 14 0ZM20.125 15.1666H15.1666V20.125C15.1666 20.7691 14.6441 21.2916 14 21.2916C13.3559 21.2916 12.8334 20.7691 12.8334 20.125V15.1666H7.875C7.23095 15.1666 6.70841 14.6441 6.70841 14C6.70841 13.3559 7.23095 12.8334 7.875 12.8334H12.8334V7.875C12.8334 7.23095 13.3559 6.70841 14 6.70841C14.6441 6.70841 15.1666 7.23095 15.1666 7.875V12.8334H20.125C20.7691 12.8334 21.2916 13.3559 21.2916 14C21.2916 14.6441 20.7691 15.1666 20.125 15.1666Z" fill="black"/>
</svg>
