<svg width="40" height="40" viewBox="0 0 40 40" fill="none" xmlns="http://www.w3.org/2000/svg">
<g id="Frame">
<g id="Group">
<path id="Vector" d="M3.35138 21.6571L32.6112 21.6697L27.1435 27.15C26.9846 27.305 26.8581 27.4901 26.7716 27.6945C26.6851 27.899 26.6402 28.1186 26.6396 28.3406C26.6442 28.6692 26.7457 28.9891 26.9314 29.2603C27.1171 29.5314 27.3787 29.7417 27.6834 29.8648C27.9881 29.9879 28.3224 30.0183 28.6443 29.9522C28.9663 29.8862 29.2615 29.7265 29.4931 29.4933L37.8333 21.1658C37.9885 21.0107 38.1116 20.8266 38.1957 20.624C38.2797 20.4213 38.3229 20.2041 38.3229 19.9847C38.3229 19.7653 38.2797 19.548 38.1957 19.3454C38.1116 19.1427 37.9885 18.9586 37.8333 18.8036L29.4931 10.476C27.9183 8.84452 25.5057 11.276 27.1435 12.8382L32.6427 18.3374L3.35138 18.3248C3.12396 18.3108 2.89608 18.3436 2.68179 18.421C2.46749 18.4984 2.27131 18.6188 2.10533 18.7749C1.93934 18.931 1.80707 19.1194 1.71665 19.3286C1.62623 19.5377 1.57959 19.7631 1.57959 19.991C1.57959 20.2188 1.62623 20.4443 1.71665 20.6534C1.80707 20.8625 1.93934 21.051 2.10533 21.207C2.27131 21.3631 2.46749 21.4836 2.68179 21.561C2.89608 21.6384 3.12396 21.6711 3.35138 21.6571Z" fill="#333333"/>
</g>
</g>
</svg>
